<svg xmlns="http://www.w3.org/2000/svg" version="1.1" xmlns:xlink="http://www.w3.org/1999/xlink" xmlns:svgjs="http://svgjs.dev/svgjs" width="1500" height="935" viewBox="0 0 1500 935"><g transform="matrix(1,0,0,1,-0.9090909090909918,0.3785425101214628)"><svg viewBox="0 0 396 247" data-background-color="#000000" preserveAspectRatio="xMidYMid meet" height="935" width="1500" xmlns="http://www.w3.org/2000/svg" xmlns:xlink="http://www.w3.org/1999/xlink"><g id="tight-bounds" transform="matrix(1,0,0,1,0.2400000000000091,-0.09999999999999432)"><svg viewBox="0 0 395.52 247.2" height="247.2" width="395.52"><rect width="395.52" height="247.2" fill="url(#8fee338d-ce41-4ef3-9a6a-672918039419)" mask="url(#9f3a48e8-ce37-4b40-9bc9-94e983ac2bfb)" data-fill-palette-color="tertiary"></rect><g><svg></svg></g><g><svg viewBox="0 0 395.52 247.2" height="247.2" width="395.52"><g transform="matrix(1,0,0,1,80.8122372413793,47.215199999999996)"><svg viewBox="0 0 233.8955255172414 152.7696" height="152.7696" width="233.8955255172414"><g><svg viewBox="0 0 233.8955255172414 152.7696" height="152.7696" width="233.8955255172414"><g><svg viewBox="0 0 233.8955255172414 152.7696" height="152.7696" width="233.8955255172414"><g><svg viewBox="0 0 233.8955255172414 152.7696" height="152.7696" width="233.8955255172414"><g id="textblocktransform"><svg viewBox="0 0 233.8955255172414 152.7696" height="152.7696" width="233.8955255172414" id="textblock"><g><svg viewBox="0 0 233.8955255172414 152.7696" height="152.7696" width="233.8955255172414"><g transform="matrix(1,0,0,1,0,0)"><svg width="233.8955255172414" viewBox="-0.25 -36.25 55.5 36.25" height="152.7696" data-palette-color="url(#965cc2fa-b106-4c06-8e0a-b70c823dba2a)"></svg></g></svg></g></svg></g></svg></g></svg></g></svg></g></svg></g><path d="M263.114 41.215L263.114 0 15.914 0 15.914 247.2 263.114 247.2 263.114 205.985 249.337 205.985 249.337 233.423 29.69 233.423 29.69 13.777 249.337 13.777 249.337 41.215Z" fill="url(#8fee338d-ce41-4ef3-9a6a-672918039419)" stroke="transparent" data-fill-palette-color="tertiary"></path></svg></g><defs></defs><mask id="c5aa2ec2-b74d-4b62-a95a-8986da122190"><g id="SvgjsG1021"><svg viewBox="0 0 395.52 247.2" height="247.2" width="395.52"><g><svg></svg></g><g><svg viewBox="0 0 395.52 247.2" height="247.2" width="395.52"><g transform="matrix(1,0,0,1,80.8122372413793,47.215199999999996)"><svg viewBox="0 0 233.8955255172414 152.7696" height="152.7696" width="233.8955255172414"><g><svg viewBox="0 0 233.8955255172414 152.7696" height="152.7696" width="233.8955255172414"><g><svg viewBox="0 0 233.8955255172414 152.7696" height="152.7696" width="233.8955255172414"><g><svg viewBox="0 0 233.8955255172414 152.7696" height="152.7696" width="233.8955255172414"><g id="SvgjsG1020"><svg viewBox="0 0 233.8955255172414 152.7696" height="152.7696" width="233.8955255172414" id="SvgjsSvg1019"><g><svg viewBox="0 0 233.8955255172414 152.7696" height="152.7696" width="233.8955255172414"><g transform="matrix(1,0,0,1,0,0)"><svg width="233.8955255172414" viewBox="-0.25 -36.25 55.5 36.25" height="152.7696" data-palette-color="url(#965cc2fa-b106-4c06-8e0a-b70c823dba2a)"><path d="M-0.25 0L12.75-33.85 17.45-33.85 30.5 0 24.15 0 21.05-8.85 8.85-8.85 5.65 0-0.25 0ZM10.45-13.25L19.5-13.25Q17.9-17.75 16.75-21.43 15.6-25.1 15-27.2L15-27.2Q14.3-24.95 13.15-21.3 12-17.65 10.45-13.25L10.45-13.25ZM33.5-35.25L39.2-36.25 39.2-22Q39.6-22.5 40.22-23.08 40.85-23.65 41.8-24.15 42.75-24.65 44-25 45.25-25.35 46.9-25.35L46.9-25.35Q48.45-25.35 49.8-24.9 51.15-24.45 52.12-23.6 53.1-22.75 53.67-21.53 54.25-20.3 54.25-18.75L54.25-18.75Q54.25-16.5 53.32-15.05 52.4-13.6 51.25-12.75L51.25-12.75Q49.95-11.75 48.25-11.15L48.25-11.15 55.25 0 48.8 0 41.6-12.45 41.55-12.95Q41.95-13.05 43.07-13.4 44.2-13.75 45.4-14.4 46.6-15.05 47.52-16.03 48.45-17 48.45-18.35L48.45-18.35Q48.45-19.8 47.6-20.55 46.75-21.3 45.35-21.3L45.35-21.3Q43.45-21.3 42.25-20.55 41.05-19.8 40.37-18.85 39.7-17.9 39.45-17.05 39.2-16.2 39.2-16.05L39.2-16.05 39.2 0 33.5 0 33.5-35.25Z" opacity="1" transform="matrix(1,0,0,1,0,0)" fill="white" class="wordmark-text-0" id="SvgjsPath1018"></path></svg></g></svg></g></svg></g></svg></g></svg></g></svg></g></svg></g><path d="M263.114 41.215L263.114 0 15.914 0 15.914 247.2 263.114 247.2 263.114 205.985 249.337 205.985 249.337 233.423 29.69 233.423 29.69 13.777 249.337 13.777 249.337 41.215Z" fill="black" stroke="transparent"></path></svg></g><defs><mask></mask></defs></svg><rect width="395.52" height="247.2" fill="black" stroke="none" visibility="hidden"></rect></g></mask><linearGradient x1="0" x2="1" y1="0.5" y2="0.5" id="965cc2fa-b106-4c06-8e0a-b70c823dba2a"><stop stop-color="#f00b51" offset="0"></stop><stop stop-color="#730062" offset="1"></stop></linearGradient><rect width="395.52" height="247.2" fill="url(#965cc2fa-b106-4c06-8e0a-b70c823dba2a)" mask="url(#c5aa2ec2-b74d-4b62-a95a-8986da122190)" data-fill-palette-color="primary"></rect><mask id="9f3a48e8-ce37-4b40-9bc9-94e983ac2bfb"><g id="SvgjsG1044"><svg viewBox="0 0 395.52 247.2" height="247.2" width="395.52"><g><svg></svg></g><g><svg viewBox="0 0 395.52 247.2" height="247.2" width="395.52"><g transform="matrix(1,0,0,1,80.8122372413793,47.215199999999996)"><svg viewBox="0 0 233.8955255172414 152.7696" height="152.7696" width="233.8955255172414"><g><svg viewBox="0 0 233.8955255172414 152.7696" height="152.7696" width="233.8955255172414"><g><svg viewBox="0 0 233.8955255172414 152.7696" height="152.7696" width="233.8955255172414"><g><svg viewBox="0 0 233.8955255172414 152.7696" height="152.7696" width="233.8955255172414"><g id="SvgjsG1043"><svg viewBox="0 0 233.8955255172414 152.7696" height="152.7696" width="233.8955255172414" id="SvgjsSvg1042"><g><svg viewBox="0 0 233.8955255172414 152.7696" height="152.7696" width="233.8955255172414"><g transform="matrix(1,0,0,1,0,0)"><svg width="233.8955255172414" viewBox="-0.25 -36.25 55.5 36.25" height="152.7696" data-palette-color="url(#965cc2fa-b106-4c06-8e0a-b70c823dba2a)"></svg></g></svg></g></svg></g></svg></g></svg></g></svg></g></svg></g><path d="M263.114 41.215L263.114 0 15.914 0 15.914 247.2 263.114 247.2 263.114 205.985 249.337 205.985 249.337 233.423 29.69 233.423 29.69 13.777 249.337 13.777 249.337 41.215Z" fill="white" stroke="transparent"></path></svg></g><defs><mask></mask></defs><mask><g id="SvgjsG1041"><svg viewBox="0 0 395.52 247.2" height="247.2" width="395.52"><g><svg></svg></g><g><svg viewBox="0 0 395.52 247.2" height="247.2" width="395.52"><g transform="matrix(1,0,0,1,80.8122372413793,47.215199999999996)"><svg viewBox="0 0 233.8955255172414 152.7696" height="152.7696" width="233.8955255172414"><g><svg viewBox="0 0 233.8955255172414 152.7696" height="152.7696" width="233.8955255172414"><g><svg viewBox="0 0 233.8955255172414 152.7696" height="152.7696" width="233.8955255172414"><g><svg viewBox="0 0 233.8955255172414 152.7696" height="152.7696" width="233.8955255172414"><g id="SvgjsG1040"><svg viewBox="0 0 233.8955255172414 152.7696" height="152.7696" width="233.8955255172414" id="SvgjsSvg1039"><g><svg viewBox="0 0 233.8955255172414 152.7696" height="152.7696" width="233.8955255172414"><g transform="matrix(1,0,0,1,0,0)"><svg width="233.8955255172414" viewBox="-0.25 -36.25 55.5 36.25" height="152.7696" data-palette-color="url(#965cc2fa-b106-4c06-8e0a-b70c823dba2a)"><path d="M-0.25 0L12.75-33.85 17.45-33.85 30.5 0 24.15 0 21.05-8.85 8.85-8.85 5.65 0-0.25 0ZM10.45-13.25L19.5-13.25Q17.9-17.75 16.75-21.43 15.6-25.1 15-27.2L15-27.2Q14.3-24.95 13.15-21.3 12-17.65 10.45-13.25L10.45-13.25ZM33.5-35.25L39.2-36.25 39.2-22Q39.6-22.5 40.22-23.08 40.85-23.65 41.8-24.15 42.75-24.65 44-25 45.25-25.35 46.9-25.35L46.9-25.35Q48.45-25.35 49.8-24.9 51.15-24.45 52.12-23.6 53.1-22.75 53.67-21.53 54.25-20.3 54.25-18.75L54.25-18.75Q54.25-16.5 53.32-15.05 52.4-13.6 51.25-12.75L51.25-12.75Q49.95-11.75 48.25-11.15L48.25-11.15 55.25 0 48.8 0 41.6-12.45 41.55-12.95Q41.95-13.05 43.07-13.4 44.2-13.75 45.4-14.4 46.6-15.05 47.52-16.03 48.45-17 48.45-18.35L48.45-18.35Q48.45-19.8 47.6-20.55 46.75-21.3 45.35-21.3L45.35-21.3Q43.45-21.3 42.25-20.55 41.05-19.8 40.37-18.85 39.7-17.9 39.45-17.05 39.2-16.2 39.2-16.05L39.2-16.05 39.2 0 33.5 0 33.5-35.25Z" opacity="1" transform="matrix(1,0,0,1,0,0)" fill="black" class="wordmark-text-0" id="SvgjsPath1038"></path></svg></g></svg></g></svg></g></svg></g></svg></g></svg></g></svg></g><path d="M263.114 41.215L263.114 0 15.914 0 15.914 247.2 263.114 247.2 263.114 205.985 249.337 205.985 249.337 233.423 29.69 233.423 29.69 13.777 249.337 13.777 249.337 41.215Z" fill="black" stroke="transparent"></path></svg></g><defs><mask></mask></defs></svg><rect width="395.52" height="247.2" fill="black" stroke="none" visibility="hidden"></rect></g></mask></svg><rect width="395.52" height="247.2" fill="black" stroke="none" visibility="hidden"></rect></g></mask><linearGradient x1="0" x2="1" y1="0.5" y2="0.5" id="8fee338d-ce41-4ef3-9a6a-672918039419"><stop stop-color="#f00b51" offset="0"></stop><stop stop-color="#730062" offset="1"></stop></linearGradient></svg><rect width="395.52" height="247.2" fill="none" stroke="none" visibility="hidden"></rect></g></svg></g></svg>